{
    "asset" : {
        "generator" : "Khronos glTF Blender I/O v1.6.16",
        "version" : "2.0"
    },
    "scene" : 0,
    "scenes" : [
        {
            "name" : "Scene",
            "nodes" : [
                0,
                1
            ]
        }
    ],
    "nodes" : [
        {
            "mesh" : 0,
            "name" : "Chest.001",
            "scale" : [
                0.8790598511695862,
                1.2603200674057007,
                0.8939806222915649
            ],
            "translation" : [
                0,
                0.09437762945890427,
                -0.0011562251020222902
            ]
        },
        {
            "mesh" : 1,
            "name" : "Lid.001",
            "scale" : [
                3.6608288288116455,
                1,
                2.6056432723999023
            ],
            "translation" : [
                0,
                0.4001546800136566,
                -0.5000000596046448
            ]
        }
    ],
    "meshes" : [
        {
            "name" : "Cube.003",
            "primitives" : [
                {
                    "attributes" : {
                        "POSITION" : 0,
                        "NORMAL" : 1,
                        "TEXCOORD_0" : 2
                    },
                    "indices" : 3
                }
            ]
        },
        {
            "name" : "Cube.004",
            "primitives" : [
                {
                    "attributes" : {
                        "POSITION" : 4,
                        "NORMAL" : 5,
                        "TEXCOORD_0" : 6
                    },
                    "indices" : 7
                }
            ]
        }
    ],
    "accessors" : [
        {
            "bufferView" : 0,
            "componentType" : 5126,
            "count" : 68,
            "max" : [
                0.568789541721344,
                0.24249610304832458,
                0.560589611530304
            ],
            "min" : [
                -0.5687894225120544,
                -0.3922633230686188,
                -0.5580028891563416
            ],
            "type" : "VEC3"
        },
        {
            "bufferView" : 1,
            "componentType" : 5126,
            "count" : 68,
            "type" : "VEC3"
        },
        {
            "bufferView" : 2,
            "componentType" : 5126,
            "count" : 68,
            "type" : "VEC2"
        },
        {
            "bufferView" : 3,
            "componentType" : 5123,
            "count" : 102,
            "type" : "SCALAR"
        },
        {
            "bufferView" : 4,
            "componentType" : 5126,
            "count" : 24,
            "max" : [
                0.13658109307289124,
                0.14185500144958496,
                0.38378238677978516
            ],
            "min" : [
                -0.13658109307289124,
                0,
                1.4901161193847656e-08
            ],
            "type" : "VEC3"
        },
        {
            "bufferView" : 5,
            "componentType" : 5126,
            "count" : 24,
            "type" : "VEC3"
        },
        {
            "bufferView" : 6,
            "componentType" : 5126,
            "count" : 24,
            "type" : "VEC2"
        },
        {
            "bufferView" : 7,
            "componentType" : 5123,
            "count" : 36,
            "type" : "SCALAR"
        }
    ],
    "bufferViews" : [
        {
            "buffer" : 0,
            "byteLength" : 816,
            "byteOffset" : 0
        },
        {
            "buffer" : 0,
            "byteLength" : 816,
            "byteOffset" : 816
        },
        {
            "buffer" : 0,
            "byteLength" : 544,
            "byteOffset" : 1632
        },
        {
            "buffer" : 0,
            "byteLength" : 204,
            "byteOffset" : 2176
        },
        {
            "buffer" : 0,
            "byteLength" : 288,
            "byteOffset" : 2380
        },
        {
            "buffer" : 0,
            "byteLength" : 288,
            "byteOffset" : 2668
        },
        {
            "buffer" : 0,
            "byteLength" : 192,
            "byteOffset" : 2956
        },
        {
            "buffer" : 0,
            "byteLength" : 72,
            "byteOffset" : 3148
        }
    ],
    "buffers" : [
        {
            "byteLength" : 3220,
            "uri" : "chest.bin"
        }
    ]
}
