{
    "asset" : {
        "generator" : "Khronos glTF Blender I/O v1.6.16",
        "version" : "2.0"
    },
    "scene" : 0,
    "scenes" : [
        {
            "name" : "Scene",
            "nodes" : [
                0
            ]
        }
    ],
    "nodes" : [
        {
            "mesh" : 0,
            "name" : "Leaf4",
            "rotation" : [
                0.7071068286895752,
                0,
                0,
                0.7071068286895752
            ],
            "scale" : [
                0.08063782006502151,
                0.08063782006502151,
                0.08063782006502151
            ]
        }
    ],
    "materials" : [
        {
            "doubleSided" : true,
            "name" : "Leaf4",
            "pbrMetallicRoughness" : {
                "baseColorTexture" : {
                    "index" : 0
                },
                "metallicFactor" : 0,
                "roughnessFactor" : 0.5
            }
        }
    ],
    "meshes" : [
        {
            "name" : "Circle.003",
            "primitives" : [
                {
                    "attributes" : {
                        "POSITION" : 0,
                        "NORMAL" : 1,
                        "TEXCOORD_0" : 2
                    },
                    "indices" : 3,
                    "material" : 0
                }
            ]
        }
    ],
    "textures" : [
        {
            "sampler" : 0,
            "source" : 0
        }
    ],
    "images" : [
        {
            "mimeType" : "image/png",
            "name" : "Leaf4",
            "uri" : "Leaf4.png"
        }
    ],
    "accessors" : [
        {
            "bufferView" : 0,
            "componentType" : 5126,
            "count" : 49,
            "max" : [
                1.3240554332733154,
                6.139688935036247e-08,
                1.1920928955078125e-06
            ],
            "min" : [
                -1.3240551948547363,
                -4.3005393024486693e-08,
                -3.752594232559204
            ],
            "type" : "VEC3"
        },
        {
            "bufferView" : 1,
            "componentType" : 5126,
            "count" : 49,
            "type" : "VEC3"
        },
        {
            "bufferView" : 2,
            "componentType" : 5126,
            "count" : 49,
            "type" : "VEC2"
        },
        {
            "bufferView" : 3,
            "componentType" : 5123,
            "count" : 141,
            "type" : "SCALAR"
        }
    ],
    "bufferViews" : [
        {
            "buffer" : 0,
            "byteLength" : 588,
            "byteOffset" : 0
        },
        {
            "buffer" : 0,
            "byteLength" : 588,
            "byteOffset" : 588
        },
        {
            "buffer" : 0,
            "byteLength" : 392,
            "byteOffset" : 1176
        },
        {
            "buffer" : 0,
            "byteLength" : 282,
            "byteOffset" : 1568
        }
    ],
    "samplers" : [
        {
            "magFilter" : 9729,
            "minFilter" : 9987
        }
    ],
    "buffers" : [
        {
            "byteLength" : 1852,
            "uri" : "Leaf4.bin"
        }
    ]
}
