{
    "asset" : {
        "generator" : "Khronos glTF Blender I/O v1.6.16",
        "version" : "2.0"
    },
    "scene" : 0,
    "scenes" : [
        {
            "name" : "Scene",
            "nodes" : [
                0,
                3
            ]
        }
    ],
    "nodes" : [
        {
            "mesh" : 0,
            "name" : "Cube",
            "scale" : [
                0.6019551753997803,
                1.4340823888778687,
                0.170212060213089
            ]
        },
        {
            "mesh" : 1,
            "name" : "Cube.001",
            "rotation" : [
                -0.5,
                0,
                0,
                0.8660253882408142
            ],
            "scale" : [
                1.05218505859375,
                2.5066981315612793,
                0.2975214421749115
            ],
            "translation" : [
                -1.0658141036401503e-14,
                -0.022313833236694336,
                -0.022313416004180908
            ]
        },
        {
            "children" : [
                1
            ],
            "name" : "Bone"
        },
        {
            "children" : [
                2
            ],
            "name" : "Armature",
            "rotation" : [
                0.3826834559440613,
                0,
                0,
                0.9238795042037964
            ],
            "scale" : [
                0.5721001625061035,
                0.5721001625061035,
                0.5721001625061035
            ],
            "translation" : [
                0,
                0.08240187168121338,
                0.17297294735908508
            ]
        }
    ],
    "materials" : [
        {
            "doubleSided" : true,
            "name" : "Material.002",
            "pbrMetallicRoughness" : {
                "baseColorFactor" : [
                    0.033038102090358734,
                    0.005771054420620203,
                    0,
                    1
                ],
                "metallicFactor" : 0,
                "roughnessFactor" : 0.5
            }
        },
        {
            "doubleSided" : true,
            "name" : "Material.003",
            "pbrMetallicRoughness" : {
                "baseColorFactor" : [
                    0.44794654846191406,
                    0.44794654846191406,
                    0.44794654846191406,
                    1
                ],
                "metallicFactor" : 0,
                "roughnessFactor" : 0.5
            }
        },
        {
            "doubleSided" : true,
            "name" : "Material.005",
            "pbrMetallicRoughness" : {
                "baseColorFactor" : [
                    0.5225217938423157,
                    0,
                    0.0037453353870660067,
                    1
                ],
                "metallicFactor" : 0,
                "roughnessFactor" : 0.5
            }
        }
    ],
    "meshes" : [
        {
            "name" : "Cube.002",
            "primitives" : [
                {
                    "attributes" : {
                        "POSITION" : 0,
                        "NORMAL" : 1,
                        "TEXCOORD_0" : 2
                    },
                    "indices" : 3,
                    "material" : 0
                },
                {
                    "attributes" : {
                        "POSITION" : 4,
                        "NORMAL" : 5,
                        "TEXCOORD_0" : 6
                    },
                    "indices" : 7,
                    "material" : 1
                }
            ]
        },
        {
            "name" : "Cube.004",
            "primitives" : [
                {
                    "attributes" : {
                        "POSITION" : 8,
                        "NORMAL" : 9,
                        "TEXCOORD_0" : 10,
                        "COLOR_0" : 11
                    },
                    "indices" : 12,
                    "material" : 2
                }
            ]
        }
    ],
    "accessors" : [
        {
            "bufferView" : 0,
            "componentType" : 5126,
            "count" : 36,
            "max" : [
                0.7243103981018066,
                0.7243103981018066,
                0.725611686706543
            ],
            "min" : [
                -0.7243103981018066,
                -0.7243103981018066,
                -0.7243103981018066
            ],
            "type" : "VEC3"
        },
        {
            "bufferView" : 1,
            "componentType" : 5126,
            "count" : 36,
            "type" : "VEC3"
        },
        {
            "bufferView" : 2,
            "componentType" : 5126,
            "count" : 36,
            "type" : "VEC2"
        },
        {
            "bufferView" : 3,
            "componentType" : 5123,
            "count" : 54,
            "type" : "SCALAR"
        },
        {
            "bufferView" : 4,
            "componentType" : 5126,
            "count" : 20,
            "max" : [
                0.3265545964241028,
                0.3265545964241028,
                1.4202661514282227
            ],
            "min" : [
                -0.3265545964241028,
                -0.3265545964241028,
                0.725611686706543
            ],
            "type" : "VEC3"
        },
        {
            "bufferView" : 5,
            "componentType" : 5126,
            "count" : 20,
            "type" : "VEC3"
        },
        {
            "bufferView" : 6,
            "componentType" : 5126,
            "count" : 20,
            "type" : "VEC2"
        },
        {
            "bufferView" : 7,
            "componentType" : 5123,
            "count" : 30,
            "type" : "SCALAR"
        },
        {
            "bufferView" : 8,
            "componentType" : 5126,
            "count" : 24,
            "max" : [
                0.09034433960914612,
                0.5899521708488464,
                8.349043846130371
            ],
            "min" : [
                -0.09034433960914612,
                -0.05711686611175537,
                -0.26731300354003906
            ],
            "type" : "VEC3"
        },
        {
            "bufferView" : 9,
            "componentType" : 5126,
            "count" : 24,
            "type" : "VEC3"
        },
        {
            "bufferView" : 10,
            "componentType" : 5126,
            "count" : 24,
            "type" : "VEC2"
        },
        {
            "bufferView" : 11,
            "componentType" : 5123,
            "count" : 24,
            "normalized" : true,
            "type" : "VEC4"
        },
        {
            "bufferView" : 12,
            "componentType" : 5123,
            "count" : 36,
            "type" : "SCALAR"
        }
    ],
    "bufferViews" : [
        {
            "buffer" : 0,
            "byteLength" : 432,
            "byteOffset" : 0
        },
        {
            "buffer" : 0,
            "byteLength" : 432,
            "byteOffset" : 432
        },
        {
            "buffer" : 0,
            "byteLength" : 288,
            "byteOffset" : 864
        },
        {
            "buffer" : 0,
            "byteLength" : 108,
            "byteOffset" : 1152
        },
        {
            "buffer" : 0,
            "byteLength" : 240,
            "byteOffset" : 1260
        },
        {
            "buffer" : 0,
            "byteLength" : 240,
            "byteOffset" : 1500
        },
        {
            "buffer" : 0,
            "byteLength" : 160,
            "byteOffset" : 1740
        },
        {
            "buffer" : 0,
            "byteLength" : 60,
            "byteOffset" : 1900
        },
        {
            "buffer" : 0,
            "byteLength" : 288,
            "byteOffset" : 1960
        },
        {
            "buffer" : 0,
            "byteLength" : 288,
            "byteOffset" : 2248
        },
        {
            "buffer" : 0,
            "byteLength" : 192,
            "byteOffset" : 2536
        },
        {
            "buffer" : 0,
            "byteLength" : 192,
            "byteOffset" : 2728
        },
        {
            "buffer" : 0,
            "byteLength" : 72,
            "byteOffset" : 2920
        }
    ],
    "buffers" : [
        {
            "byteLength" : 2992,
            "uri" : "wall lever.bin"
        }
    ]
}
