{
    "asset" : {
        "generator" : "Khronos glTF Blender I/O v1.6.16",
        "version" : "2.0"
    },
    "scene" : 0,
    "scenes" : [
        {
            "name" : "Scene",
            "nodes" : [
                0
            ]
        }
    ],
    "nodes" : [
        {
            "mesh" : 0,
            "name" : "Cone.001",
            "scale" : [
                0.05000000074505806,
                0.05000000074505806,
                0.05000000074505806
            ]
        }
    ],
    "materials" : [
        {
            "doubleSided" : true,
            "name" : "Material.002",
            "pbrMetallicRoughness" : {
                "baseColorTexture" : {
                    "index" : 0
                },
                "metallicFactor" : 0,
                "roughnessFactor" : 0.5
            }
        }
    ],
    "meshes" : [
        {
            "name" : "Cone.001",
            "primitives" : [
                {
                    "attributes" : {
                        "POSITION" : 0,
                        "NORMAL" : 1,
                        "TEXCOORD_0" : 2
                    },
                    "indices" : 3,
                    "material" : 0
                }
            ]
        }
    ],
    "textures" : [
        {
            "sampler" : 0,
            "source" : 0
        }
    ],
    "images" : [
        {
            "mimeType" : "image/png",
            "name" : "Blue Hibiscus",
            "uri" : "Blue%20Hibiscus.png"
        }
    ],
    "accessors" : [
        {
            "bufferView" : 0,
            "componentType" : 5126,
            "count" : 169,
            "max" : [
                2.349801540374756,
                2.598151683807373,
                2.2164618968963623
            ],
            "min" : [
                -2.247563362121582,
                0,
                -2.3465123176574707
            ],
            "type" : "VEC3"
        },
        {
            "bufferView" : 1,
            "componentType" : 5126,
            "count" : 169,
            "type" : "VEC3"
        },
        {
            "bufferView" : 2,
            "componentType" : 5126,
            "count" : 169,
            "type" : "VEC2"
        },
        {
            "bufferView" : 3,
            "componentType" : 5123,
            "count" : 588,
            "type" : "SCALAR"
        }
    ],
    "bufferViews" : [
        {
            "buffer" : 0,
            "byteLength" : 2028,
            "byteOffset" : 0
        },
        {
            "buffer" : 0,
            "byteLength" : 2028,
            "byteOffset" : 2028
        },
        {
            "buffer" : 0,
            "byteLength" : 1352,
            "byteOffset" : 4056
        },
        {
            "buffer" : 0,
            "byteLength" : 1176,
            "byteOffset" : 5408
        }
    ],
    "samplers" : [
        {
            "magFilter" : 9729,
            "minFilter" : 9987
        }
    ],
    "buffers" : [
        {
            "byteLength" : 6584,
            "uri" : "Blue Hibiscus.bin"
        }
    ]
}
