{
    "asset" : {
        "generator" : "Khronos glTF Blender I/O v1.6.16",
        "version" : "2.0"
    },
    "scene" : 0,
    "scenes" : [
        {
            "name" : "Scene",
            "nodes" : [
                0
            ]
        }
    ],
    "nodes" : [
        {
            "mesh" : 0,
            "name" : "Key",
            "scale" : [
                0.07229164987802505,
                0.07229164987802505,
                0.07229164987802505
            ],
            "translation" : [
                0,
                1.0770785808563232,
                0.9302222728729248
            ]
        }
    ],
    "materials" : [
        {
            "doubleSided" : true,
            "name" : "Key Mat",
            "pbrMetallicRoughness" : {
                "baseColorFactor" : [
                    0.4570598602294922,
                    0.3232264518737793,
                    0.1320609152317047,
                    1
                ],
                "metallicFactor" : 0.38759690523147583,
                "roughnessFactor" : 0.6635658740997314
            }
        }
    ],
    "meshes" : [
        {
            "name" : "Cube",
            "primitives" : [
                {
                    "attributes" : {
                        "POSITION" : 0,
                        "NORMAL" : 1,
                        "TEXCOORD_0" : 2
                    },
                    "indices" : 3,
                    "material" : 0
                }
            ]
        }
    ],
    "accessors" : [
        {
            "bufferView" : 0,
            "componentType" : 5126,
            "count" : 220,
            "max" : [
                1,
                1,
                -0.6268564462661743
            ],
            "min" : [
                -1.4145257472991943,
                -4.064626693725586,
                -1
            ],
            "type" : "VEC3"
        },
        {
            "bufferView" : 1,
            "componentType" : 5126,
            "count" : 220,
            "type" : "VEC3"
        },
        {
            "bufferView" : 2,
            "componentType" : 5126,
            "count" : 220,
            "type" : "VEC2"
        },
        {
            "bufferView" : 3,
            "componentType" : 5123,
            "count" : 408,
            "type" : "SCALAR"
        }
    ],
    "bufferViews" : [
        {
            "buffer" : 0,
            "byteLength" : 2640,
            "byteOffset" : 0
        },
        {
            "buffer" : 0,
            "byteLength" : 2640,
            "byteOffset" : 2640
        },
        {
            "buffer" : 0,
            "byteLength" : 1760,
            "byteOffset" : 5280
        },
        {
            "buffer" : 0,
            "byteLength" : 816,
            "byteOffset" : 7040
        }
    ],
    "buffers" : [
        {
            "byteLength" : 7856,
            "uri" : "Key.bin"
        }
    ]
}
