{
    "asset" : {
        "generator" : "Khronos glTF Blender I/O v1.6.16",
        "version" : "2.0"
    },
    "scene" : 0,
    "scenes" : [
        {
            "name" : "Scene",
            "nodes" : [
                0,
                1
            ]
        }
    ],
    "nodes" : [
        {
            "mesh" : 0,
            "name" : "Roots",
            "rotation" : [
                0.7029390335083008,
                0.44937819242477417,
                -0.06644752621650696,
                0.5472849607467651
            ],
            "scale" : [
                0.08290021121501923,
                0.08290021121501923,
                0.08290021121501923
            ],
            "translation" : [
                0.16975431144237518,
                0.08321193605661392,
                -1.280544638633728
            ]
        },
        {
            "mesh" : 1,
            "name" : "Cracks",
            "rotation" : [
                -0.5,
                0.5,
                -0.4999999701976776,
                0.5
            ],
            "scale" : [
                0.20725053548812866,
                0.08290021121501923,
                0.24870063364505768
            ],
            "translation" : [
                0.16975431144237518,
                0.20303794741630554,
                -1.4936872720718384
            ]
        }
    ],
    "materials" : [
        {
            "doubleSided" : true,
            "name" : "Material.002",
            "pbrMetallicRoughness" : {
                "baseColorFactor" : [
                    0.11493541300296783,
                    0.06003566086292267,
                    0.06882511079311371,
                    1
                ],
                "metallicFactor" : 0,
                "roughnessFactor" : 0.5
            }
        },
        {
            "doubleSided" : true,
            "name" : "Material.001",
            "pbrMetallicRoughness" : {
                "baseColorFactor" : [
                    0,
                    0,
                    0,
                    1
                ],
                "metallicFactor" : 0,
                "roughnessFactor" : 0.5
            }
        }
    ],
    "meshes" : [
        {
            "name" : "Cylinder",
            "primitives" : [
                {
                    "attributes" : {
                        "POSITION" : 0,
                        "NORMAL" : 1,
                        "TEXCOORD_0" : 2
                    },
                    "indices" : 3,
                    "material" : 0
                }
            ]
        },
        {
            "name" : "Plane.001",
            "primitives" : [
                {
                    "attributes" : {
                        "POSITION" : 4,
                        "NORMAL" : 5,
                        "TEXCOORD_0" : 6
                    },
                    "indices" : 7,
                    "material" : 1
                }
            ]
        }
    ],
    "accessors" : [
        {
            "bufferView" : 0,
            "componentType" : 5126,
            "count" : 720,
            "max" : [
                3.043179512023926,
                4.482849597930908,
                2.394930124282837
            ],
            "min" : [
                -4.45570182800293,
                -3.8080146312713623,
                -2.5363731384277344
            ],
            "type" : "VEC3"
        },
        {
            "bufferView" : 1,
            "componentType" : 5126,
            "count" : 720,
            "type" : "VEC3"
        },
        {
            "bufferView" : 2,
            "componentType" : 5126,
            "count" : 720,
            "type" : "VEC2"
        },
        {
            "bufferView" : 3,
            "componentType" : 5123,
            "count" : 1116,
            "type" : "SCALAR"
        },
        {
            "bufferView" : 4,
            "componentType" : 5126,
            "count" : 28,
            "max" : [
                1,
                1.1894104368082026e-08,
                1.0049940347671509
            ],
            "min" : [
                -0.40586787462234497,
                -0.03604624792933464,
                -1
            ],
            "type" : "VEC3"
        },
        {
            "bufferView" : 5,
            "componentType" : 5126,
            "count" : 28,
            "type" : "VEC3"
        },
        {
            "bufferView" : 6,
            "componentType" : 5126,
            "count" : 28,
            "type" : "VEC2"
        },
        {
            "bufferView" : 7,
            "componentType" : 5123,
            "count" : 78,
            "type" : "SCALAR"
        }
    ],
    "bufferViews" : [
        {
            "buffer" : 0,
            "byteLength" : 8640,
            "byteOffset" : 0
        },
        {
            "buffer" : 0,
            "byteLength" : 8640,
            "byteOffset" : 8640
        },
        {
            "buffer" : 0,
            "byteLength" : 5760,
            "byteOffset" : 17280
        },
        {
            "buffer" : 0,
            "byteLength" : 2232,
            "byteOffset" : 23040
        },
        {
            "buffer" : 0,
            "byteLength" : 336,
            "byteOffset" : 25272
        },
        {
            "buffer" : 0,
            "byteLength" : 336,
            "byteOffset" : 25608
        },
        {
            "buffer" : 0,
            "byteLength" : 224,
            "byteOffset" : 25944
        },
        {
            "buffer" : 0,
            "byteLength" : 156,
            "byteOffset" : 26168
        }
    ],
    "buffers" : [
        {
            "byteLength" : 26324,
            "uri" : "Roots.bin"
        }
    ]
}
