{
    "asset" : {
        "generator" : "Khronos glTF Blender I/O v1.6.16",
        "version" : "2.0"
    },
    "scene" : 0,
    "scenes" : [
        {
            "name" : "Scene",
            "nodes" : [
                0
            ]
        }
    ],
    "nodes" : [
        {
            "mesh" : 0,
            "name" : "Roots",
            "rotation" : [
                0.7029390335083008,
                0.44937819242477417,
                -0.06644752621650696,
                0.5472849607467651
            ],
            "scale" : [
                0.08290021121501923,
                0.08290021121501923,
                0.08290021121501923
            ]
        }
    ],
    "materials" : [
        {
            "doubleSided" : true,
            "name" : "Material.002",
            "pbrMetallicRoughness" : {
                "baseColorFactor" : [
                    0.11493541300296783,
                    0.06003566086292267,
                    0.06882511079311371,
                    1
                ],
                "metallicFactor" : 0,
                "roughnessFactor" : 0.5
            }
        },
        {
            "doubleSided" : true,
            "name" : "Material.001",
            "pbrMetallicRoughness" : {
                "baseColorFactor" : [
                    0,
                    0,
                    0,
                    1
                ],
                "metallicFactor" : 0,
                "roughnessFactor" : 0.5
            }
        }
    ],
    "meshes" : [
        {
            "name" : "Cylinder",
            "primitives" : [
                {
                    "attributes" : {
                        "POSITION" : 0,
                        "NORMAL" : 1,
                        "TEXCOORD_0" : 2
                    },
                    "indices" : 3,
                    "material" : 0
                },
                {
                    "attributes" : {
                        "POSITION" : 4,
                        "NORMAL" : 5,
                        "TEXCOORD_0" : 6
                    },
                    "indices" : 7,
                    "material" : 1
                }
            ]
        }
    ],
    "accessors" : [
        {
            "bufferView" : 0,
            "componentType" : 5126,
            "count" : 720,
            "max" : [
                2.3455305099487305,
                6.571682453155518,
                0.6600100994110107
            ],
            "min" : [
                -5.153350830078125,
                -1.719181776046753,
                -4.2712931632995605
            ],
            "type" : "VEC3"
        },
        {
            "bufferView" : 1,
            "componentType" : 5126,
            "count" : 720,
            "type" : "VEC3"
        },
        {
            "bufferView" : 2,
            "componentType" : 5126,
            "count" : 720,
            "type" : "VEC2"
        },
        {
            "bufferView" : 3,
            "componentType" : 5123,
            "count" : 1116,
            "type" : "SCALAR"
        },
        {
            "bufferView" : 4,
            "componentType" : 5126,
            "count" : 168,
            "max" : [
                3.589202642440796,
                2.387761354446411,
                1.0751502513885498
            ],
            "min" : [
                -1.5442314147949219,
                -1.9018772840499878,
                -3.5788733959198
            ],
            "type" : "VEC3"
        },
        {
            "bufferView" : 5,
            "componentType" : 5126,
            "count" : 168,
            "type" : "VEC3"
        },
        {
            "bufferView" : 6,
            "componentType" : 5126,
            "count" : 168,
            "type" : "VEC2"
        },
        {
            "bufferView" : 7,
            "componentType" : 5123,
            "count" : 324,
            "type" : "SCALAR"
        }
    ],
    "bufferViews" : [
        {
            "buffer" : 0,
            "byteLength" : 8640,
            "byteOffset" : 0
        },
        {
            "buffer" : 0,
            "byteLength" : 8640,
            "byteOffset" : 8640
        },
        {
            "buffer" : 0,
            "byteLength" : 5760,
            "byteOffset" : 17280
        },
        {
            "buffer" : 0,
            "byteLength" : 2232,
            "byteOffset" : 23040
        },
        {
            "buffer" : 0,
            "byteLength" : 2016,
            "byteOffset" : 25272
        },
        {
            "buffer" : 0,
            "byteLength" : 2016,
            "byteOffset" : 27288
        },
        {
            "buffer" : 0,
            "byteLength" : 1344,
            "byteOffset" : 29304
        },
        {
            "buffer" : 0,
            "byteLength" : 648,
            "byteOffset" : 30648
        }
    ],
    "buffers" : [
        {
            "byteLength" : 31296,
            "uri" : "Roots.bin"
        }
    ]
}
