{
    "asset" : {
        "generator" : "Khronos glTF Blender I/O v1.6.16",
        "version" : "2.0"
    },
    "scene" : 0,
    "scenes" : [
        {
            "name" : "Scene",
            "nodes" : [
                0
            ]
        }
    ],
    "nodes" : [
        {
            "mesh" : 0,
            "name" : "Torch",
            "rotation" : [
                0.05480939522385597,
                0,
                0,
                0.9984968304634094
            ],
            "scale" : [
                0.04235127940773964,
                0.042351096868515015,
                0.042351096868515015
            ]
        }
    ],
    "materials" : [
        {
            "doubleSided" : true,
            "name" : "Material.002",
            "pbrMetallicRoughness" : {
                "baseColorFactor" : [
                    0.033006541430950165,
                    0.006183740682899952,
                    0.009617937728762627,
                    1
                ],
                "metallicFactor" : 0,
                "roughnessFactor" : 0.5
            }
        },
        {
            "doubleSided" : true,
            "name" : "Material.001",
            "pbrMetallicRoughness" : {
                "baseColorFactor" : [
                    0.06692973524332047,
                    0.06971903145313263,
                    0.07322443276643753,
                    1
                ],
                "metallicFactor" : 0.859375,
                "roughnessFactor" : 0.1796875
            }
        }
    ],
    "meshes" : [
        {
            "name" : "Cylinder",
            "primitives" : [
                {
                    "attributes" : {
                        "POSITION" : 0,
                        "NORMAL" : 1,
                        "TEXCOORD_0" : 2
                    },
                    "indices" : 3,
                    "material" : 0
                },
                {
                    "attributes" : {
                        "POSITION" : 4,
                        "NORMAL" : 5,
                        "TEXCOORD_0" : 6
                    },
                    "indices" : 7,
                    "material" : 1
                }
            ]
        }
    ],
    "accessors" : [
        {
            "bufferView" : 0,
            "componentType" : 5126,
            "count" : 112,
            "max" : [
                1.3711707592010498,
                7.811659336090088,
                8.68851089477539
            ],
            "min" : [
                -1.3637406826019287,
                -6.218259334564209,
                1.705531358718872
            ],
            "type" : "VEC3"
        },
        {
            "bufferView" : 1,
            "componentType" : 5126,
            "count" : 112,
            "type" : "VEC3"
        },
        {
            "bufferView" : 2,
            "componentType" : 5126,
            "count" : 112,
            "type" : "VEC2"
        },
        {
            "bufferView" : 3,
            "componentType" : 5123,
            "count" : 180,
            "type" : "SCALAR"
        },
        {
            "bufferView" : 4,
            "componentType" : 5126,
            "count" : 100,
            "max" : [
                3.4508285522460938,
                9.981122970581055,
                4.464939117431641
            ],
            "min" : [
                -3.455782413482666,
                -7.735202312469482,
                -1.0323596000671387
            ],
            "type" : "VEC3"
        },
        {
            "bufferView" : 5,
            "componentType" : 5126,
            "count" : 100,
            "type" : "VEC3"
        },
        {
            "bufferView" : 6,
            "componentType" : 5126,
            "count" : 100,
            "type" : "VEC2"
        },
        {
            "bufferView" : 7,
            "componentType" : 5123,
            "count" : 156,
            "type" : "SCALAR"
        }
    ],
    "bufferViews" : [
        {
            "buffer" : 0,
            "byteLength" : 1344,
            "byteOffset" : 0
        },
        {
            "buffer" : 0,
            "byteLength" : 1344,
            "byteOffset" : 1344
        },
        {
            "buffer" : 0,
            "byteLength" : 896,
            "byteOffset" : 2688
        },
        {
            "buffer" : 0,
            "byteLength" : 360,
            "byteOffset" : 3584
        },
        {
            "buffer" : 0,
            "byteLength" : 1200,
            "byteOffset" : 3944
        },
        {
            "buffer" : 0,
            "byteLength" : 1200,
            "byteOffset" : 5144
        },
        {
            "buffer" : 0,
            "byteLength" : 800,
            "byteOffset" : 6344
        },
        {
            "buffer" : 0,
            "byteLength" : 312,
            "byteOffset" : 7144
        }
    ],
    "buffers" : [
        {
            "byteLength" : 7456,
            "uri" : "Torch Sconce.bin"
        }
    ]
}
