{
    "asset" : {
        "generator" : "Khronos glTF Blender I/O v1.6.16",
        "version" : "2.0"
    },
    "scene" : 0,
    "scenes" : [
        {
            "name" : "Scene",
            "nodes" : [
                0
            ]
        }
    ],
    "nodes" : [
        {
            "mesh" : 0,
            "name" : "Longbow",
            "rotation" : [
                0,
                0.39920470118522644,
                0,
                0.9168618321418762
            ],
            "scale" : [
                0.33125007152557373,
                0.33125007152557373,
                0.33125007152557373
            ]
        }
    ],
    "materials" : [
        {
            "doubleSided" : true,
            "name" : "Longbow mat",
            "pbrMetallicRoughness" : {
                "baseColorTexture" : {
                    "index" : 0
                },
                "metallicFactor" : 0,
                "roughnessFactor" : 0.5
            }
        }
    ],
    "meshes" : [
        {
            "name" : "Longbow",
            "primitives" : [
                {
                    "attributes" : {
                        "POSITION" : 0,
                        "NORMAL" : 1,
                        "TEXCOORD_0" : 2
                    },
                    "indices" : 3,
                    "material" : 0
                }
            ]
        }
    ],
    "textures" : [
        {
            "sampler" : 0,
            "source" : 0
        }
    ],
    "images" : [
        {
            "mimeType" : "image/png",
            "name" : "Longbow",
            "uri" : "Longbow.png"
        }
    ],
    "accessors" : [
        {
            "bufferView" : 0,
            "componentType" : 5126,
            "count" : 340,
            "max" : [
                0.28145632147789,
                2.2571475505828857,
                0.038141753524541855
            ],
            "min" : [
                -0.682532548904419,
                -2.2571475505828857,
                -0.038141753524541855
            ],
            "type" : "VEC3"
        },
        {
            "bufferView" : 1,
            "componentType" : 5126,
            "count" : 340,
            "type" : "VEC3"
        },
        {
            "bufferView" : 2,
            "componentType" : 5126,
            "count" : 340,
            "type" : "VEC2"
        },
        {
            "bufferView" : 3,
            "componentType" : 5123,
            "count" : 510,
            "type" : "SCALAR"
        }
    ],
    "bufferViews" : [
        {
            "buffer" : 0,
            "byteLength" : 4080,
            "byteOffset" : 0
        },
        {
            "buffer" : 0,
            "byteLength" : 4080,
            "byteOffset" : 4080
        },
        {
            "buffer" : 0,
            "byteLength" : 2720,
            "byteOffset" : 8160
        },
        {
            "buffer" : 0,
            "byteLength" : 1020,
            "byteOffset" : 10880
        }
    ],
    "samplers" : [
        {
            "magFilter" : 9729,
            "minFilter" : 9987
        }
    ],
    "buffers" : [
        {
            "byteLength" : 11900,
            "uri" : "Longbow.bin"
        }
    ]
}
