{
    "asset" : {
        "generator" : "Khronos glTF Blender I/O v1.6.16",
        "version" : "2.0"
    },
    "scene" : 0,
    "scenes" : [
        {
            "name" : "Scene",
            "nodes" : [
                0
            ]
        }
    ],
    "nodes" : [
        {
            "mesh" : 0,
            "name" : "Gladius",
            "rotation" : [
                0,
                0.8442502021789551,
                0,
                0.5359492301940918
            ],
            "scale" : [
                0.09481659531593323,
                0.09481659531593323,
                0.09481659531593323
            ],
            "translation" : [
                1.1427414417266846,
                0,
                0
            ]
        }
    ],
    "materials" : [
        {
            "doubleSided" : true,
            "name" : "Gladius",
            "pbrMetallicRoughness" : {
                "baseColorTexture" : {
                    "index" : 0
                },
                "metallicFactor" : 0,
                "roughnessFactor" : 0.5
            }
        }
    ],
    "meshes" : [
        {
            "name" : "Gladius",
            "primitives" : [
                {
                    "attributes" : {
                        "POSITION" : 0,
                        "NORMAL" : 1,
                        "TEXCOORD_0" : 2
                    },
                    "indices" : 3,
                    "material" : 0
                }
            ]
        }
    ],
    "textures" : [
        {
            "sampler" : 0,
            "source" : 0
        }
    ],
    "images" : [
        {
            "mimeType" : "image/png",
            "name" : "Gladius UV",
            "uri" : "Gladius%20UV.png"
        }
    ],
    "accessors" : [
        {
            "bufferView" : 0,
            "componentType" : 5126,
            "count" : 317,
            "max" : [
                4.175563335418701,
                0.7068726420402527,
                0.4717628061771393
            ],
            "min" : [
                -11.61301326751709,
                -0.7068726420402527,
                -0.47176283597946167
            ],
            "type" : "VEC3"
        },
        {
            "bufferView" : 1,
            "componentType" : 5126,
            "count" : 317,
            "type" : "VEC3"
        },
        {
            "bufferView" : 2,
            "componentType" : 5126,
            "count" : 317,
            "type" : "VEC2"
        },
        {
            "bufferView" : 3,
            "componentType" : 5123,
            "count" : 678,
            "type" : "SCALAR"
        }
    ],
    "bufferViews" : [
        {
            "buffer" : 0,
            "byteLength" : 3804,
            "byteOffset" : 0
        },
        {
            "buffer" : 0,
            "byteLength" : 3804,
            "byteOffset" : 3804
        },
        {
            "buffer" : 0,
            "byteLength" : 2536,
            "byteOffset" : 7608
        },
        {
            "buffer" : 0,
            "byteLength" : 1356,
            "byteOffset" : 10144
        }
    ],
    "samplers" : [
        {
            "magFilter" : 9729,
            "minFilter" : 9987
        }
    ],
    "buffers" : [
        {
            "byteLength" : 11500,
            "uri" : "Gladius.bin"
        }
    ]
}
